<?xml version="1.0" encoding="UTF-8" standalone="no"?><!-- Generator: Gravit.io --><svg xmlns="http://www.w3.org/2000/svg" xmlns:xlink="http://www.w3.org/1999/xlink" style="isolation:isolate" viewBox="0 0 452 122.892" width="452pt" height="122.892pt"><defs><clipPath id="_clipPath_XX3YdyyB0ICnKmRis2B46Plk52E4hzEH"><rect width="452" height="122.892"/></clipPath></defs><g clip-path="url(#_clipPath_XX3YdyyB0ICnKmRis2B46Plk52E4hzEH)"><clipPath id="_clipPath_ll5GAgsVd2Rh6TeUO9Sd5cMA5zW6g2rk"><rect x="0" y="0" width="452" height="122.892" transform="matrix(1,0,0,1,0,0)" fill="rgb(255,255,255)"/></clipPath><g clip-path="url(#_clipPath_ll5GAgsVd2Rh6TeUO9Sd5cMA5zW6g2rk)"><g><linearGradient id="_lgradient_0" x1="-0.009983378366372697" y1="0.5293674220297038" x2="1.0428640053090277" y2="0.5293674220297035" gradientTransform="matrix(452,0,0,122.892,0,0)" gradientUnits="userSpaceOnUse"><stop offset="0%" stop-opacity="1" style="stop-color:rgb(51,169,172)"/><stop offset="24.782608695652176%" stop-opacity="1" style="stop-color:rgb(255,166,70)"/><stop offset="51.30434782608696%" stop-opacity="1" style="stop-color:rgb(248,96,65)"/><stop offset="76.08695652173914%" stop-opacity="1" style="stop-color:rgb(152,32,98)"/><stop offset="96.08695652173913%" stop-opacity="1" style="stop-color:rgb(52,55,121)"/></linearGradient><path d=" M 61.679 122.892 C 84.488 122.892 104.272 111.022 114.28 92.867 L 83.79 75.411 C 80.066 83.557 71.454 88.445 61.213 88.445 C 46.084 88.445 34.912 77.506 34.912 61.446 C 34.912 45.386 46.084 34.447 61.213 34.447 C 71.454 34.447 79.833 39.335 83.79 47.481 L 114.28 29.792 C 104.272 11.87 84.255 0 61.679 0 C 26.301 0 0 26.766 0 61.446 C 0 96.126 26.301 122.892 61.679 122.892 Z  M 157.106 75.411 L 239.732 75.411 C 240.663 70.989 241.129 66.334 241.129 61.446 C 241.129 26.301 215.992 0 182.01 0 C 145.236 0 120.099 26.766 120.099 61.446 C 120.099 96.126 144.77 122.892 184.571 122.892 C 206.682 122.892 223.905 114.746 235.31 98.919 L 207.38 82.859 C 202.725 87.979 194.579 91.703 185.036 91.703 C 172.235 91.703 161.528 87.514 157.106 75.411 Z  M 156.408 49.343 C 159.666 37.473 168.511 30.956 181.778 30.956 C 192.251 30.956 202.725 35.843 206.449 49.343 L 156.408 49.343 L 156.408 49.343 Z  M 295.825 23.973 L 295.825 3.259 L 260.912 3.259 L 260.912 119.633 L 295.825 119.633 L 295.825 67.032 C 295.825 43.99 316.307 38.171 330.737 40.498 L 330.737 0.931 C 316.074 0.931 300.48 8.379 295.825 23.973 Z  M 399.399 122.892 C 422.208 122.892 441.992 111.022 452 92.867 L 421.51 75.411 C 417.786 83.557 409.174 88.445 398.933 88.445 C 383.804 88.445 372.632 77.506 372.632 61.446 C 372.632 45.386 383.804 34.447 398.933 34.447 C 409.174 34.447 417.553 39.335 421.51 47.481 L 452 29.792 C 441.992 11.87 421.975 0 399.399 0 C 364.021 0 337.72 26.766 337.72 61.446 C 337.72 96.126 364.021 122.892 399.399 122.892 Z " fill="url(#_lgradient_0)"/></g></g></g></svg>